<svg xmlns="http://www.w3.org/2000/svg" width="720" height="640" viewBox="0 0 720 640" role="img" aria-labelledby="title desc">
<title id="title">Entender projetos, issues, objetivos e trabalho pessoal</title>
<desc id="desc">Diagrama: Projeto: trabalho e conhecimento compartilhados. Issue: trabalho; objetivo: resultado. Ciclo pessoal: trabalho entre projetos. Página: contexto; feedback: necessidade.</desc>
<rect width="720" height="640" rx="20" fill="#fafaf9" />
<rect x="24" y="24" width="672" height="128" rx="16" fill="#e6edf5" stroke="#293d56" stroke-width="1" stroke-opacity="0.12" />
<circle cx="60" cy="88" r="20" fill="#60706b" />
<circle cx="60" cy="88" r="5" fill="#ffffff" />
<text x="98" y="81" font-family="Arial, sans-serif" font-size="29" fill="#293d56">Projeto: trabalho e conhecimento</text>
<text x="98" y="115" font-family="Arial, sans-serif" font-size="29" fill="#293d56">compartilhados</text>
<rect x="24" y="178" width="672" height="128" rx="16" fill="#e0efe8" stroke="#1e4436" stroke-width="1" stroke-opacity="0.12" />
<circle cx="60" cy="242" r="20" fill="#60706b" />
<circle cx="60" cy="242" r="5" fill="#ffffff" />
<text x="98" y="252" font-family="Arial, sans-serif" font-size="29" fill="#293d56">Issue: trabalho; objetivo: resultado</text>
<rect x="24" y="332" width="672" height="128" rx="16" fill="#f0ecf6" stroke="#433352" stroke-width="1" stroke-opacity="0.12" />
<circle cx="60" cy="396" r="20" fill="#60706b" />
<circle cx="60" cy="396" r="5" fill="#ffffff" />
<text x="98" y="406" font-family="Arial, sans-serif" font-size="29" fill="#293d56">Ciclo pessoal: trabalho entre projetos</text>
<rect x="24" y="486" width="672" height="128" rx="16" fill="#f7ecdf" stroke="#573e28" stroke-width="1" stroke-opacity="0.12" />
<circle cx="60" cy="550" r="20" fill="#60706b" />
<circle cx="60" cy="550" r="5" fill="#ffffff" />
<text x="98" y="543" font-family="Arial, sans-serif" font-size="29" fill="#293d56">Página: contexto; feedback:</text>
<text x="98" y="577" font-family="Arial, sans-serif" font-size="29" fill="#293d56">necessidade</text>
</svg>
